<?xml version="1.0" encoding="UTF-8"?>
<svg id="Layer_1" data-name="Layer 1" xmlns="http://www.w3.org/2000/svg" viewBox="0 0 324.7 182.73">
  <defs>
    <style>
      .cls-1 {
        fill: #f9edd4;
      }

      .cls-2 {
        fill: #2fac9d;
      }
    </style>
  </defs>
  <g>
    <path class="cls-1" d="M324.19,79.76c4.48-28.16-21.85-34.36-21.85-34.36C302.34,45.4,54.63,3.76,30.54.42,6.46-2.92-3.07,14.26.85,31.44c1.84,8.08,17.75,52.99,25.54,84.54l291.89,1c1.23-9.04,4.94-31.17,5.9-37.22Z"/>
    <path class="cls-2" d="M26.39,115.98c8.78,35.53,9.43,33.99,9.43,33.99,10.08,37.22,25.77,32.57,40.33,32.57s188.22-.48,208.39-.95c20.17-.48,26.33-23.98,26.33-23.98,0,0,2.91-7.58,7.42-40.62l-291.89-1Z"/>
  </g>
  <g>
    <path class="cls-1" d="M63.81,141.22c-.17-.07-.3-.2-.37-.37-.07-.17-.07-.35,0-.52l.74-1.77h0s2.14-5.17,2.14-5.17c0-.02.02-.04.03-.06v-.03s.03-.03.04-.03c0,0,0-.01.02-.03l.02-.02s0-.01.02-.02c.01-.02.02-.03.02-.03,0,0,.01,0,.02-.02.02-.02.03-.02.03-.02,0,0,0,0,.02-.02.02-.01.03-.02.03-.02l.02-.02s.03-.02.04-.02c0,0,.02,0,.04-.02.02-.01.03-.02.02-.01s0,0,.02-.01c.02,0,.03,0,.04-.01,0,0,.02,0,.04-.01h.02s.02,0,.04-.01h.03s.02,0,.04,0h.13s.03.01.03.01c0,0,.02,0,.04.01.02,0,.03,0,.02,0,.05.01.09.03.13.05,0,0,0,0,.02.01.02.01.03.02.03.02l.02.02s.03.02.03.02c0,0,.01,0,.02.02s.02.02.03.02c0,0,0,.01.02.02.02.02.02.02.02.03l.02.02s.02.03.02.03,0,.01.02.03.02.03.02.03c.01.02.02.04.03.06l2.14,5.16h0s.74,1.78.74,1.78c.07.17.07.35,0,.52-.07.17-.2.3-.37.37-.09.04-.17.05-.26.05-.31,0-.52-.14-.63-.42l-.56-1.35h-3.37l-.56,1.35c-.12.28-.33.42-.63.42-.09,0-.18-.02-.26-.05ZM68.06,138.13l-1.12-2.7-1.12,2.7h2.24Z"/>
    <path class="cls-1" d="M79.57,132.94c.19,0,.35.07.49.2.13.14.2.3.2.49s-.07.35-.2.48c-.13.14-.29.2-.48.2h-3.52s0,2.1,0,2.1h2.53c.19,0,.35.07.49.2.14.14.2.3.2.49s-.07.35-.2.49c-.14.13-.3.2-.49.2h-2.53v2.8c0,.19-.07.35-.2.48-.14.14-.3.2-.49.2s-.35-.07-.48-.2c-.14-.13-.2-.29-.2-.48v-6.97c0-.19.07-.36.2-.49.13-.14.29-.2.48-.2h4.21Z"/>
    <path class="cls-1" d="M86.29,139.89c.19,0,.35.07.48.2.14.14.2.3.2.49s-.07.35-.2.48c-.13.14-.29.2-.48.2h-4.21c-.19,0-.35-.07-.48-.2-.14-.13-.2-.29-.2-.48v-6.97c0-.19.07-.36.2-.49.13-.14.29-.2.48-.2h4.21c.19.01.35.08.49.21.13.14.2.3.2.49s-.07.35-.2.48c-.13.14-.29.2-.48.2h-3.52s0,2.1,0,2.1h2.53c.19,0,.35.07.49.2.14.14.2.3.2.49s-.07.35-.2.49c-.14.13-.3.2-.49.2h-2.53v2.11h3.52Z"/>
    <path class="cls-1" d="M93.54,138.79c-.03.69-.31,1.28-.83,1.76-.53.48-1.16.72-1.88.72-.63,0-1.2-.14-1.7-.41-.6-.33-.98-.8-1.14-1.42-.05-.18-.02-.35.07-.52.1-.16.24-.27.42-.31.18-.05.35-.02.52.07.16.1.27.24.31.42.07.26.26.46.57.61.28.13.6.19.95.19s.68-.11.94-.34c.26-.22.4-.5.42-.84,0-.2-.06-.38-.21-.54-.24-.25-.64-.39-1.21-.39h0s-.02,0-.01,0h-.01c-.95-.02-1.68-.29-2.18-.82-.41-.44-.61-.96-.58-1.54.03-.7.31-1.29.83-1.77s1.15-.72,1.88-.72c.63,0,1.2.14,1.7.41.6.33.98.8,1.14,1.42.05.18.02.35-.08.52-.09.16-.23.27-.41.31-.18.05-.35.02-.52-.07-.16-.1-.27-.24-.31-.42-.07-.26-.26-.46-.58-.61-.28-.13-.59-.19-.95-.19s-.68.11-.94.34c-.26.23-.4.51-.41.84,0,.2.06.38.21.55.24.25.64.38,1.21.39h.03c.95.02,1.68.29,2.18.83.41.44.61.95.58,1.54Z"/>
    <path class="cls-1" d="M96.83,134.3h-1.73c-.19,0-.35-.07-.49-.2-.13-.13-.2-.29-.2-.48s.07-.35.2-.48c.14-.14.3-.2.49-.2h4.83c.19,0,.35.07.48.2s.2.29.2.48-.07.35-.2.48-.3.2-.48.2h-1.73v6.29c0,.19-.07.35-.2.49-.13.13-.29.2-.48.2s-.35-.07-.48-.2c-.14-.14-.2-.3-.2-.49v-6.29Z"/>
    <path class="cls-1" d="M102.33,141.27c-.19,0-.35-.07-.48-.2-.14-.13-.2-.29-.2-.48v-6.93c0-.19.07-.35.2-.48.13-.14.29-.2.48-.2s.35.07.48.2c.14.13.2.29.2.48v6.93c0,.19-.07.35-.2.48-.13.14-.29.2-.48.2Z"/>
    <path class="cls-1" d="M110.12,133.01c.18.06.31.18.39.35.08.17.09.34.03.52l-2.44,6.93h0s-.03.06-.04.09c0,0,0,.01-.01.02-.02.03-.03.05-.05.08,0,0,0,0-.01.02l-.06.06s-.02.02-.01.01c-.02.02-.04.04-.07.06,0,0,0,0-.01.01-.02.02-.05.03-.08.04h-.01s-.05.03-.07.03c-.02,0-.02,0-.01,0-.02,0-.04.01-.08.02-.03,0-.04,0-.03,0-.04,0-.08.01-.11.01s-.07,0-.11-.01c.01,0,0,0-.03,0-.03,0-.06,0-.08-.02,0,0,0,0-.01,0-.02,0-.05-.02-.07-.03h-.02s-.05-.03-.07-.05h0s0-.01,0-.01c-.03-.02-.05-.04-.07-.06,0,0,0,0-.02-.01-.02-.02-.04-.04-.05-.06,0,0-.01-.01-.01-.02-.01-.02-.03-.05-.05-.08,0,0,0,0-.01-.02-.02-.03-.03-.06-.04-.09h0s-2.44-6.94-2.44-6.94c-.06-.18-.05-.35.03-.52.08-.17.21-.29.39-.35.18-.06.35-.05.52.03.17.08.29.21.35.39l1.79,5.1,1.79-5.1c.06-.18.18-.31.35-.39.17-.08.34-.09.52-.03Z"/>
    <path class="cls-1" d="M111.81,141.22c-.17-.07-.3-.2-.37-.37-.07-.17-.07-.35,0-.52l.74-1.77h0s2.14-5.17,2.14-5.17c0-.02.02-.04.03-.06v-.03s.03-.03.04-.03c0,0,0-.01.02-.03l.02-.02s0-.01.02-.02c.01-.02.02-.03.02-.03,0,0,.01,0,.02-.02.02-.02.03-.02.03-.02,0,0,0,0,.02-.02.02-.01.03-.02.03-.02l.02-.02s.03-.02.04-.02c0,0,.02,0,.04-.02.02-.01.03-.02.02-.01s0,0,.02-.01c.02,0,.03,0,.04-.01,0,0,.02,0,.04-.01h.02s.02,0,.04-.01h.03s.02,0,.04,0h.13s.03.01.03.01c0,0,.02,0,.04.01.02,0,.03,0,.02,0,.05.01.09.03.13.05,0,0,0,0,.02.01.02.01.03.02.03.02l.02.02s.03.02.03.02c0,0,.01,0,.02.02s.02.02.03.02c0,0,0,.01.02.02.02.02.02.02.02.03l.02.02s.02.03.02.03,0,.01.02.03.02.03.02.03c.01.02.02.04.03.06l2.14,5.16h0s.74,1.78.74,1.78c.07.17.07.35,0,.52-.07.17-.2.3-.37.37-.09.04-.17.05-.26.05-.31,0-.52-.14-.63-.42l-.56-1.35h-3.37l-.56,1.35c-.12.28-.33.42-.63.42-.09,0-.18-.02-.26-.05ZM116.07,138.13l-1.12-2.7-1.12,2.7h2.24Z"/>
    <path class="cls-1" d="M120.45,132.94c.19,0,.35.07.48.2.14.13.2.29.2.48v6.28h3.08c.19,0,.35.07.49.2s.2.29.2.48-.07.35-.2.48-.3.2-.49.2h-3.76c-.19,0-.35-.07-.48-.2-.14-.13-.2-.29-.2-.48v-6.96c0-.19.07-.35.2-.48.13-.14.29-.2.48-.2Z"/>
    <path class="cls-1" d="M133.83,132.94c.19,0,.35.07.49.2.13.14.2.3.2.49s-.07.35-.2.48c-.13.14-.29.2-.48.2h-3.52s0,2.1,0,2.1h2.53c.19,0,.35.07.49.2.14.14.2.3.2.49s-.07.35-.2.49c-.14.13-.3.2-.49.2h-2.53v2.8c0,.19-.07.35-.2.48-.14.14-.3.2-.49.2s-.35-.07-.48-.2c-.14-.13-.2-.29-.2-.48v-6.97c0-.19.07-.36.2-.49.13-.14.29-.2.48-.2h4.21Z"/>
    <path class="cls-1" d="M139.35,141.27c-1.15,0-2.13-.41-2.95-1.23-.82-.81-1.23-1.8-1.23-2.95s.41-2.13,1.23-2.95,1.8-1.22,2.95-1.22,2.14.41,2.95,1.22c.81.82,1.22,1.8,1.22,2.95s-.41,2.13-1.22,2.95-1.8,1.23-2.95,1.23ZM139.35,134.3c-.77,0-1.43.27-1.98.82s-.83,1.21-.83,1.98.28,1.43.83,1.98c.55.55,1.21.83,1.98.83s1.43-.27,1.98-.83.82-1.21.82-1.98-.27-1.43-.82-1.98c-.55-.55-1.21-.82-1.98-.82Z"/>
    <path class="cls-1" d="M150.88,135.35c0,.51-.16.97-.48,1.39-.31.41-.71.7-1.21.88l1.32,2.67c.08.17.09.34.03.52-.06.18-.17.31-.34.4-.1.05-.2.07-.3.07-.28,0-.49-.13-.61-.38l-1.54-3.12h-1.18v2.77c0,.19-.07.35-.2.48s-.29.2-.48.2-.35-.07-.48-.2c-.13-.14-.2-.3-.2-.48v-6.93c0-.19.07-.35.2-.48s.3-.2.48-.2h2.41c.72,0,1.33.24,1.83.71.51.47.76,1.04.76,1.71ZM148.33,136.4c.33-.01.6-.12.84-.32.23-.21.34-.45.34-.73s-.12-.54-.36-.75-.53-.31-.87-.31h-1.72v2.11h1.77Z"/>
    <path class="cls-1" d="M160.19,139.89c.19,0,.35.07.48.2.14.14.2.3.2.49s-.07.35-.2.48c-.13.14-.29.2-.48.2h-4.21c-.19,0-.35-.07-.48-.2-.14-.13-.2-.29-.2-.48v-6.97c0-.19.07-.36.2-.49.13-.14.29-.2.48-.2h4.21c.19.01.35.08.49.21.13.14.2.3.2.49s-.07.35-.2.48c-.13.14-.29.2-.48.2h-3.52s0,2.1,0,2.1h2.53c.19,0,.35.07.49.2.14.14.2.3.2.49s-.07.35-.2.49c-.14.13-.3.2-.49.2h-2.53v2.11h3.52Z"/>
    <path class="cls-1" d="M167.73,133.08c.15.11.25.26.28.45.03.19,0,.36-.12.51l-2.18,3.07,2.18,3.08c.11.16.15.33.12.51-.03.19-.12.33-.28.44-.12.08-.25.13-.4.13-.24,0-.42-.1-.56-.29l-1.9-2.68-1.9,2.68c-.14.19-.32.29-.56.29-.15,0-.28-.04-.4-.13-.16-.11-.25-.26-.28-.44-.03-.19,0-.36.12-.51l2.18-3.08-2.18-3.07c-.11-.16-.15-.33-.12-.51.03-.19.12-.33.28-.45.15-.11.33-.15.51-.12.19.04.33.13.44.28l1.9,2.69,1.9-2.69c.11-.15.26-.24.44-.28.19-.03.36,0,.51.12Z"/>
    <path class="cls-1" d="M172.6,132.92c.72,0,1.33.24,1.84.71.51.48.77,1.05.77,1.72s-.25,1.22-.74,1.7c-.49.47-1.08.71-1.78.74h-.02s-.07,0-.07,0h-.04s-1.7,0-1.7,0v2.8c0,.19-.07.35-.2.48s-.3.2-.49.2-.35-.07-.48-.2c-.14-.13-.2-.29-.2-.48v-6.98c0-.19.07-.35.2-.48.13-.14.29-.2.48-.2h2.42ZM172.64,136.42c.33,0,.61-.11.84-.32.23-.21.35-.46.35-.74s-.12-.54-.36-.75-.53-.31-.87-.31h-1.74v2.13h1.78Z"/>
    <path class="cls-1" d="M181.52,139.89c.19,0,.35.07.48.2.14.14.2.3.2.49s-.07.35-.2.48c-.13.14-.29.2-.48.2h-4.21c-.19,0-.35-.07-.48-.2-.14-.13-.2-.29-.2-.48v-6.97c0-.19.07-.36.2-.49.13-.14.29-.2.48-.2h4.21c.19.01.35.08.49.21.13.14.2.3.2.49s-.07.35-.2.48c-.13.14-.29.2-.48.2h-3.52s0,2.1,0,2.1h2.53c.19,0,.35.07.49.2.14.14.2.3.2.49s-.07.35-.2.49c-.14.13-.3.2-.49.2h-2.53v2.11h3.52Z"/>
    <path class="cls-1" d="M189.16,135.35c0,.51-.16.97-.48,1.39-.31.41-.71.7-1.21.88l1.32,2.67c.08.17.09.34.03.52-.06.18-.17.31-.34.4-.1.05-.2.07-.3.07-.28,0-.49-.13-.61-.38l-1.54-3.12h-1.18v2.77c0,.19-.07.35-.2.48s-.29.2-.48.2-.35-.07-.48-.2c-.13-.14-.2-.3-.2-.48v-6.93c0-.19.07-.35.2-.48s.3-.2.48-.2h2.41c.72,0,1.33.24,1.83.71.51.47.76,1.04.76,1.71ZM186.62,136.4c.33-.01.6-.12.84-.32.23-.21.34-.45.34-.73s-.12-.54-.36-.75-.53-.31-.87-.31h-1.72v2.11h1.77Z"/>
    <path class="cls-1" d="M191.32,141.27c-.19,0-.35-.07-.48-.2-.14-.13-.2-.29-.2-.48v-6.93c0-.19.07-.35.2-.48.13-.14.29-.2.48-.2s.35.07.48.2c.14.13.2.29.2.48v6.93c0,.19-.07.35-.2.48-.13.14-.29.2-.48.2Z"/>
    <path class="cls-1" d="M201.6,132.94c.15.04.27.13.36.25.09.12.14.26.14.41v6.99c0,.19-.07.35-.2.48s-.3.2-.49.2-.35-.07-.49-.2-.2-.29-.2-.48v-4.52l-2.17,3.58h0s0,.01,0,.01h0s0,.01,0,.01c-.01.02-.02.03-.02.04l-.02.02s-.03.03-.03.03l-.02.02s-.02.02-.02.02c0,0-.02.02-.04.03l-.02.02s-.03.02-.04.02c0,0,0,0,0,0h0s0,0,0,0c0,0-.02.02-.04.02-.02,0-.02.01-.02.01,0,0-.02,0-.04.01-.09.04-.18.06-.28.05h-.01s0,0-.02,0c-.05,0-.1-.01-.15-.03-.02,0-.03,0-.02,0,0,0,0,0-.02,0-.02,0-.03-.01-.04-.02,0,0,0,0-.01-.01-.02,0-.04-.02-.05-.02h-.01s0-.01,0-.01c-.02,0-.03-.02-.04-.03,0,0,0,0-.02-.01-.02-.01-.03-.02-.04-.03l-.02-.02s-.02-.02-.02-.02c0,0-.01-.02-.03-.03,0-.01-.01-.02-.01-.02,0,0-.02-.02-.03-.04h0s0-.01,0-.01h0s0-.01,0-.01l-2.16-3.58v4.52c0,.19-.07.35-.2.48-.14.14-.3.2-.49.2s-.35-.07-.48-.2c-.14-.13-.2-.29-.2-.48v-6.99c0-.15.05-.29.14-.41.09-.12.22-.21.37-.25.15-.04.29-.03.44.02.14.06.26.15.34.29l2.86,4.73,2.86-4.73c.08-.13.19-.23.33-.29.14-.05.29-.06.44-.02Z"/>
    <path class="cls-1" d="M208.94,139.89c.19,0,.35.07.48.2.14.14.2.3.2.49s-.07.35-.2.48c-.13.14-.29.2-.48.2h-4.21c-.19,0-.35-.07-.48-.2-.14-.13-.2-.29-.2-.48v-6.97c0-.19.07-.36.2-.49.13-.14.29-.2.48-.2h4.21c.19.01.35.08.49.21.13.14.2.3.2.49s-.07.35-.2.48c-.13.14-.29.2-.48.2h-3.52s0,2.1,0,2.1h2.53c.19,0,.35.07.49.2.14.14.2.3.2.49s-.07.35-.2.49c-.14.13-.3.2-.49.2h-2.53v2.11h3.52Z"/>
    <path class="cls-1" d="M216.48,141.01h0s-4.18-5.38-4.18-5.38v4.96c0,.19-.07.35-.2.48-.13.14-.29.2-.48.2s-.35-.07-.48-.2c-.14-.13-.2-.29-.2-.48v-6.96c0-.15.04-.28.13-.4.09-.12.2-.2.34-.25.14-.05.27-.05.42-.01.14.04.25.12.34.24l4.18,5.38v-4.96c0-.19.07-.35.2-.48s.3-.2.49-.2.35.07.48.2c.14.13.2.29.2.48v6.98s0,.02,0,.03v.03s0,.02,0,.04c0,.02,0,.03,0,.03v.03s-.01.03-.02.04c0,0,0,.01-.01.03,0,.02,0,.03-.01.03v.03s-.03.03-.03.03c0,0,0,.02-.02.04l-.02.02s-.01.02-.02.04l-.02.02-.02.02s-.02.02-.02.02c0,0,0,.01-.02.02-.01.01-.02.02-.03.02.01,0,0,0,0,0h0s-.06.05-.09.06h0s-.06.03-.09.04c-.01,0-.02,0-.01,0-.03.01-.06.02-.1.02h-.02s-.07.01-.1.01c-.02,0-.05,0-.08,0,0,0,0,0-.01,0-.02,0-.04,0-.06-.01,0,0,0,0-.02,0-.02,0-.04,0-.05-.01,0,0-.01,0-.02-.01-.02,0-.03,0-.05-.02,0,0-.02,0-.02-.01-.02,0-.03-.01-.04-.02-.01,0-.02-.01-.02-.02-.01,0-.02-.02-.04-.03-.01,0-.02-.01-.02-.02-.02-.02-.04-.03-.05-.05h0s-.03-.04-.04-.06Z"/>
    <path class="cls-1" d="M221.38,134.3h-1.73c-.19,0-.35-.07-.49-.2-.13-.13-.2-.29-.2-.48s.07-.35.2-.48c.14-.14.3-.2.49-.2h4.83c.19,0,.35.07.48.2s.2.29.2.48-.07.35-.2.48-.3.2-.48.2h-1.73v6.29c0,.19-.07.35-.2.49-.13.13-.29.2-.48.2s-.35-.07-.48-.2c-.14-.14-.2-.3-.2-.49v-6.29Z"/>
    <path class="cls-1" d="M226.1,141.22c-.17-.07-.3-.2-.37-.37-.07-.17-.07-.35,0-.52l.74-1.77h0s2.14-5.17,2.14-5.17c0-.02.02-.04.03-.06v-.03s.03-.03.04-.03c0,0,0-.01.02-.03l.02-.02s0-.01.02-.02c.01-.02.02-.03.02-.03,0,0,.01,0,.02-.02.02-.02.03-.02.03-.02,0,0,0,0,.02-.02.02-.01.03-.02.03-.02l.02-.02s.03-.02.04-.02c0,0,.02,0,.04-.02.02-.01.03-.02.02-.01s0,0,.02-.01c.02,0,.03,0,.04-.01,0,0,.02,0,.04-.01h.02s.02,0,.04-.01h.03s.02,0,.04,0h.13s.03.01.03.01c0,0,.02,0,.04.01.02,0,.03,0,.02,0,.05.01.09.03.13.05,0,0,0,0,.02.01.02.01.03.02.03.02l.02.02s.03.02.03.02c0,0,.01,0,.02.02s.02.02.03.02c0,0,0,.01.02.02.02.02.02.02.02.03l.02.02s.02.03.02.03,0,.01.02.03.02.03.02.03c.01.02.02.04.03.06l2.14,5.16h0s.74,1.78.74,1.78c.07.17.07.35,0,.52-.07.17-.2.3-.37.37-.09.04-.17.05-.26.05-.31,0-.52-.14-.63-.42l-.56-1.35h-3.37l-.56,1.35c-.12.28-.33.42-.63.42-.09,0-.18-.02-.26-.05ZM230.36,138.13l-1.12-2.7-1.12,2.7h2.24Z"/>
    <path class="cls-1" d="M234.74,132.94c.19,0,.35.07.48.2.14.13.2.29.2.48v6.28h3.08c.19,0,.35.07.49.2s.2.29.2.48-.07.35-.2.48-.3.2-.49.2h-3.76c-.19,0-.35-.07-.48-.2-.14-.13-.2-.29-.2-.48v-6.96c0-.19.07-.35.2-.48.13-.14.29-.2.48-.2Z"/>
    <path class="cls-1" d="M246.92,141.25c-1.15,0-2.13-.41-2.94-1.22-.81-.81-1.22-1.79-1.22-2.94s.41-2.12,1.22-2.93c.81-.81,1.79-1.22,2.94-1.22.94,0,1.79.29,2.53.86.15.12.24.27.27.46.02.19-.02.35-.14.51-.12.15-.27.24-.45.26-.19.03-.36-.02-.51-.13-.5-.38-1.06-.58-1.69-.58-.77,0-1.42.27-1.97.81-.54.55-.81,1.2-.81,1.96s.27,1.42.81,1.97c.55.54,1.2.81,1.97.81.72,0,1.34-.24,1.87-.73,0,0,.02-.02.04-.04v-1.52s-2.27,0-2.27,0c-.19,0-.36-.07-.49-.2s-.2-.3-.2-.49.07-.35.2-.49c.13-.14.29-.2.49-.2h2.96c.19,0,.35.07.49.2s.2.3.2.49l-.02,3.69c0,.19-.07.35-.2.48-.13.14-.29.2-.48.2h0c-.16,0-.29-.05-.42-.15-.12-.09-.2-.21-.24-.35-.61.32-1.25.48-1.94.48Z"/>
    <path class="cls-1" d="M251.82,141.22c-.17-.07-.3-.2-.37-.37-.07-.17-.07-.35,0-.52l.74-1.77h0s2.14-5.17,2.14-5.17c0-.02.02-.04.03-.06v-.03s.03-.03.04-.03c0,0,0-.01.02-.03l.02-.02s0-.01.02-.02c.01-.02.02-.03.02-.03,0,0,.01,0,.02-.02.02-.02.03-.02.03-.02,0,0,0,0,.02-.02.02-.01.03-.02.03-.02l.02-.02s.03-.02.04-.02c0,0,.02,0,.04-.02.02-.01.03-.02.02-.01s0,0,.02-.01c.02,0,.03,0,.04-.01,0,0,.02,0,.04-.01h.02s.02,0,.04-.01h.03s.02,0,.04,0h.13s.03.01.03.01c0,0,.02,0,.04.01.02,0,.03,0,.02,0,.05.01.09.03.13.05,0,0,0,0,.02.01.02.01.03.02.03.02l.02.02s.03.02.03.02c0,0,.01,0,.02.02s.02.02.03.02c0,0,0,.01.02.02.02.02.02.02.02.03l.02.02s.02.03.02.03,0,.01.02.03.02.03.02.03c.01.02.02.04.03.06l2.14,5.16h0s.74,1.78.74,1.78c.07.17.07.35,0,.52-.07.17-.2.3-.37.37-.09.04-.17.05-.26.05-.31,0-.52-.14-.63-.42l-.56-1.35h-3.37l-.56,1.35c-.12.28-.33.42-.63.42-.09,0-.18-.02-.26-.05ZM256.07,138.13l-1.12-2.7-1.12,2.7h2.24Z"/>
    <path class="cls-1" d="M267.52,132.94c.15.04.27.13.36.25.09.12.14.26.14.41v6.99c0,.19-.07.35-.2.48s-.3.2-.49.2-.35-.07-.49-.2-.2-.29-.2-.48v-4.52l-2.17,3.58h0s0,.01,0,.01h0s0,.01,0,.01c-.01.02-.02.03-.02.04l-.02.02s-.03.03-.03.03l-.02.02s-.02.02-.02.02c0,0-.02.02-.04.03l-.02.02s-.03.02-.04.02c0,0,0,0,0,0h0s0,0,0,0c0,0-.02.02-.04.02-.02,0-.02.01-.02.01,0,0-.02,0-.04.01-.09.04-.18.06-.28.05h-.01s0,0-.02,0c-.05,0-.1-.01-.15-.03-.02,0-.03,0-.02,0,0,0,0,0-.02,0-.02,0-.03-.01-.04-.02,0,0,0,0-.01-.01-.02,0-.04-.02-.05-.02h-.01s0-.01,0-.01c-.02,0-.03-.02-.04-.03,0,0,0,0-.02-.01-.02-.01-.03-.02-.04-.03l-.02-.02s-.02-.02-.02-.02c0,0-.01-.02-.03-.03,0-.01-.01-.02-.01-.02,0,0-.02-.02-.03-.04h0s0-.01,0-.01h0s0-.01,0-.01l-2.16-3.58v4.52c0,.19-.07.35-.2.48-.14.14-.3.2-.49.2s-.35-.07-.48-.2c-.14-.13-.2-.29-.2-.48v-6.99c0-.15.05-.29.14-.41.09-.12.22-.21.37-.25.15-.04.29-.03.44.02.14.06.26.15.34.29l2.86,4.73,2.86-4.73c.08-.13.19-.23.33-.29.14-.05.29-.06.44-.02Z"/>
    <path class="cls-1" d="M274.86,139.89c.19,0,.35.07.48.2.14.14.2.3.2.49s-.07.35-.2.48c-.13.14-.29.2-.48.2h-4.21c-.19,0-.35-.07-.48-.2-.14-.13-.2-.29-.2-.48v-6.97c0-.19.07-.36.2-.49.13-.14.29-.2.48-.2h4.21c.19.01.35.08.49.21.13.14.2.3.2.49s-.07.35-.2.48c-.13.14-.29.2-.48.2h-3.52s0,2.1,0,2.1h2.53c.19,0,.35.07.49.2.14.14.2.3.2.49s-.07.35-.2.49c-.14.13-.3.2-.49.2h-2.53v2.11h3.52Z"/>
    <path class="cls-1" d="M282.11,138.79c-.03.69-.31,1.28-.83,1.76-.53.48-1.16.72-1.88.72-.63,0-1.2-.14-1.7-.41-.6-.33-.98-.8-1.14-1.42-.05-.18-.02-.35.07-.52.1-.16.24-.27.42-.31.18-.05.35-.02.52.07.16.1.27.24.31.42.07.26.26.46.57.61.28.13.6.19.95.19s.68-.11.94-.34c.26-.22.4-.5.42-.84,0-.2-.06-.38-.21-.54-.24-.25-.64-.39-1.21-.39h0s-.02,0-.01,0h-.01c-.95-.02-1.68-.29-2.18-.82-.41-.44-.61-.96-.58-1.54.03-.7.31-1.29.83-1.77s1.15-.72,1.88-.72c.63,0,1.2.14,1.7.41.6.33.98.8,1.14,1.42.05.18.02.35-.08.52-.09.16-.23.27-.41.31-.18.05-.35.02-.52-.07-.16-.1-.27-.24-.31-.42-.07-.26-.26-.46-.58-.61-.28-.13-.59-.19-.95-.19s-.68.11-.94.34c-.26.23-.4.51-.41.84,0,.2.06.38.21.55.24.25.64.38,1.21.39h.03c.95.02,1.68.29,2.18.83.41.44.61.95.58,1.54Z"/>
    <path class="cls-1" d="M92.15,155.5c-.17-.07-.3-.2-.37-.37-.07-.17-.07-.35,0-.52l.74-1.77h0s2.14-5.17,2.14-5.17c0-.02.02-.04.03-.06v-.03s.03-.03.04-.03c0,0,0-.01.02-.03l.02-.02s0-.01.02-.02c.01-.02.02-.03.02-.03,0,0,.01,0,.02-.02.02-.02.03-.02.03-.02,0,0,0,0,.02-.02.02-.01.03-.02.03-.02l.02-.02s.03-.02.04-.02c0,0,.02,0,.04-.02.02-.01.03-.02.02-.01s0,0,.02-.01c.02,0,.03,0,.04-.01,0,0,.02,0,.04-.01h.02s.02,0,.04-.01h.03s.02,0,.04,0h.13s.03.01.03.01c0,0,.02,0,.04.01.02,0,.03,0,.02,0,.05.01.09.03.13.05,0,0,0,0,.02.01.02.01.03.02.03.02l.02.02s.03.02.03.02c0,0,.01,0,.02.02s.02.02.03.02c0,0,0,.01.02.02.02.02.02.02.02.03l.02.02s.02.03.02.03,0,.01.02.03.02.03.02.03c.01.02.02.04.03.06l2.14,5.16h0s.74,1.78.74,1.78c.07.17.07.35,0,.52-.07.17-.2.3-.37.37-.09.04-.17.05-.26.05-.31,0-.52-.14-.63-.42l-.56-1.35h-3.37l-.56,1.35c-.12.28-.33.42-.63.42-.09,0-.18-.02-.26-.05ZM96.41,152.42l-1.12-2.7-1.12,2.7h2.24Z"/>
    <path class="cls-1" d="M105.64,155.3h0s-4.18-5.38-4.18-5.38v4.96c0,.19-.07.35-.2.48-.13.14-.29.2-.48.2s-.35-.07-.48-.2c-.14-.13-.2-.29-.2-.48v-6.96c0-.15.04-.28.13-.4.09-.12.2-.2.34-.25.14-.05.27-.05.42-.01.14.04.25.12.34.24l4.18,5.38v-4.96c0-.19.07-.35.2-.48s.3-.2.49-.2.35.07.48.2c.14.13.2.29.2.48v6.98s0,.02,0,.03v.03s0,.02,0,.04c0,.02,0,.03,0,.03v.03s-.01.03-.02.04c0,0,0,.01-.01.03,0,.02,0,.03-.01.03v.03s-.03.03-.03.03c0,0,0,.02-.02.04l-.02.02s-.01.02-.02.04l-.02.02-.02.02s-.02.02-.02.02c0,0,0,.01-.02.02-.01.01-.02.02-.03.02.01,0,0,0,0,0h0s-.06.05-.09.06h0s-.06.03-.09.04c-.01,0-.02,0-.01,0-.03.01-.06.02-.1.02h-.02s-.07.01-.1.01c-.02,0-.05,0-.08,0,0,0,0,0-.01,0-.02,0-.04,0-.06-.01,0,0,0,0-.02,0-.02,0-.04,0-.05-.01,0,0-.01,0-.02-.01-.02,0-.03,0-.05-.02,0,0-.02,0-.02-.01-.02,0-.03-.01-.04-.02-.01,0-.02-.01-.02-.02-.01,0-.02-.02-.04-.03-.01,0-.02-.01-.02-.02-.02-.02-.04-.03-.05-.05h0s-.03-.04-.04-.06Z"/>
    <path class="cls-1" d="M109.48,155.56c-.19,0-.35-.07-.48-.2-.14-.14-.2-.3-.2-.49v-6.96c0-.19.07-.35.2-.49s.29-.2.48-.2h1.76c1.15,0,2.13.4,2.94,1.21.81.81,1.21,1.79,1.21,2.93s-.41,2.13-1.21,2.94c-.81.81-1.79,1.22-2.94,1.22l-1.75.02h-.01ZM110.18,154.17l1.06-.02c.77,0,1.43-.27,1.97-.81.54-.54.81-1.2.81-1.96s-.27-1.42-.81-1.96c-.54-.55-1.2-.82-1.96-.82h-1.07v5.57Z"/>
    <path class="cls-1" d="M123.15,147.21c.72,0,1.33.24,1.84.71.51.48.77,1.05.77,1.72s-.25,1.22-.74,1.7c-.49.47-1.08.71-1.78.74h-.02s-.07,0-.07,0h-.04s-1.7,0-1.7,0v2.8c0,.19-.07.35-.2.48s-.3.2-.49.2-.35-.07-.48-.2c-.14-.13-.2-.29-.2-.48v-6.98c0-.19.07-.35.2-.48.13-.14.29-.2.48-.2h2.42ZM123.19,150.7c.33,0,.61-.11.84-.32.23-.21.35-.46.35-.74s-.12-.54-.36-.75-.53-.31-.87-.31h-1.74v2.13h1.78Z"/>
    <path class="cls-1" d="M127.89,147.22c.19,0,.35.07.48.2.14.13.2.29.2.48v6.28h3.08c.19,0,.35.07.49.2s.2.29.2.48-.07.35-.2.48-.3.2-.49.2h-3.76c-.19,0-.35-.07-.48-.2-.14-.13-.2-.29-.2-.48v-6.96c0-.19.07-.35.2-.48.13-.14.29-.2.48-.2Z"/>
    <path class="cls-1" d="M133.36,155.5c-.17-.07-.3-.2-.37-.37-.07-.17-.07-.35,0-.52l.74-1.77h0s2.14-5.17,2.14-5.17c0-.02.02-.04.03-.06v-.03s.03-.03.04-.03c0,0,0-.01.02-.03l.02-.02s0-.01.02-.02c.01-.02.02-.03.02-.03,0,0,.01,0,.02-.02.02-.02.03-.02.03-.02,0,0,0,0,.02-.02.02-.01.03-.02.03-.02l.02-.02s.03-.02.04-.02c0,0,.02,0,.04-.02.02-.01.03-.02.02-.01s0,0,.02-.01c.02,0,.03,0,.04-.01,0,0,.02,0,.04-.01h.02s.02,0,.04-.01h.03s.02,0,.04,0h.13s.03.01.03.01c0,0,.02,0,.04.01.02,0,.03,0,.02,0,.05.01.09.03.13.05,0,0,0,0,.02.01.02.01.03.02.03.02l.02.02s.03.02.03.02c0,0,.01,0,.02.02s.02.02.03.02c0,0,0,.01.02.02.02.02.02.02.02.03l.02.02s.02.03.02.03,0,.01.02.03.02.03.02.03c.01.02.02.04.03.06l2.14,5.16h0s.74,1.78.74,1.78c.07.17.07.35,0,.52-.07.17-.2.3-.37.37-.09.04-.17.05-.26.05-.31,0-.52-.14-.63-.42l-.56-1.35h-3.37l-.56,1.35c-.12.28-.33.42-.63.42-.09,0-.18-.02-.26-.05ZM137.61,152.42l-1.12-2.7-1.12,2.7h2.24Z"/>
    <path class="cls-1" d="M147.03,147.4c.15.12.23.27.26.45.02.19-.03.36-.15.51l-2.52,3.15v3.37c0,.19-.07.35-.2.49s-.29.2-.48.2-.35-.07-.48-.2-.2-.3-.2-.49v-3.37l-2.52-3.15c-.12-.15-.17-.32-.15-.51.02-.19.1-.34.25-.45.15-.12.32-.17.51-.15.19.02.34.11.46.26l2.13,2.67,2.14-2.67c.12-.15.27-.23.45-.26.19-.02.36.03.51.15Z"/>
    <path class="cls-1" d="M153.43,147.22c.19,0,.35.07.49.2.13.14.2.3.2.49s-.07.35-.2.48c-.13.14-.29.2-.48.2h-3.52s0,2.1,0,2.1h2.53c.19,0,.35.07.49.2.14.14.2.3.2.49s-.07.35-.2.49c-.14.13-.3.2-.49.2h-2.53v2.8c0,.19-.07.35-.2.48-.14.14-.3.2-.49.2s-.35-.07-.48-.2c-.14-.13-.2-.29-.2-.48v-6.97c0-.19.07-.36.2-.49.13-.14.29-.2.48-.2h4.21Z"/>
    <path class="cls-1" d="M160.4,147.22c.19,0,.34.07.48.2s.2.29.2.48v4.69c0,.82-.29,1.52-.87,2.1s-1.28.87-2.1.87-1.52-.29-2.1-.87c-.58-.58-.87-1.28-.87-2.1v-4.69c0-.19.07-.34.2-.48s.29-.2.48-.2.34.07.48.2.2.29.2.48v4.69c0,.45.16.83.48,1.15.32.32.7.48,1.15.48s.83-.16,1.15-.48c.32-.32.48-.7.48-1.15v-4.69c0-.19.07-.34.2-.48s.29-.2.48-.2Z"/>
    <path class="cls-1" d="M163.62,147.22c.19,0,.35.07.48.2.14.13.2.29.2.48v6.28h3.08c.19,0,.35.07.49.2s.2.29.2.48-.07.35-.2.48-.3.2-.49.2h-3.76c-.19,0-.35-.07-.48-.2-.14-.13-.2-.29-.2-.48v-6.96c0-.19.07-.35.2-.48.13-.14.29-.2.48-.2Z"/>
    <path class="cls-1" d="M172.81,155.56c-.19,0-.35-.07-.48-.2-.14-.13-.2-.29-.2-.48v-6.93c0-.19.07-.35.2-.48.13-.14.29-.2.48-.2s.35.07.48.2c.14.13.2.29.2.48v6.93c0,.19-.07.35-.2.48-.13.14-.29.2-.48.2Z"/>
    <path class="cls-1" d="M180.87,155.3h0s-4.18-5.38-4.18-5.38v4.96c0,.19-.07.35-.2.48-.13.14-.29.2-.48.2s-.35-.07-.48-.2c-.14-.13-.2-.29-.2-.48v-6.96c0-.15.04-.28.13-.4.09-.12.2-.2.34-.25.14-.05.27-.05.42-.01.14.04.25.12.34.24l4.18,5.38v-4.96c0-.19.07-.35.2-.48s.3-.2.49-.2.35.07.48.2c.14.13.2.29.2.48v6.98s0,.02,0,.03v.03s0,.02,0,.04c0,.02,0,.03,0,.03v.03s-.01.03-.02.04c0,0,0,.01-.01.03,0,.02,0,.03-.01.03v.03s-.03.03-.03.03c0,0,0,.02-.02.04l-.02.02s-.01.02-.02.04l-.02.02-.02.02s-.02.02-.02.02c0,0,0,.01-.02.02-.01.01-.02.02-.03.02.01,0,0,0,0,0h0s-.06.05-.09.06h0s-.06.03-.09.04c-.01,0-.02,0-.01,0-.03.01-.06.02-.1.02h-.02s-.07.01-.1.01c-.02,0-.05,0-.08,0,0,0,0,0-.01,0-.02,0-.04,0-.06-.01,0,0,0,0-.02,0-.02,0-.04,0-.05-.01,0,0-.01,0-.02-.01-.02,0-.03,0-.05-.02,0,0-.02,0-.02-.01-.02,0-.03-.01-.04-.02-.01,0-.02-.01-.02-.02-.01,0-.02-.02-.04-.03-.01,0-.02-.01-.02-.02-.02-.02-.04-.03-.05-.05h0s-.03-.04-.04-.06Z"/>
    <path class="cls-1" d="M185.77,148.58h-1.73c-.19,0-.35-.07-.49-.2-.13-.13-.2-.29-.2-.48s.07-.35.2-.48c.14-.14.3-.2.49-.2h4.83c.19,0,.35.07.48.2s.2.29.2.48-.07.35-.2.48-.3.2-.48.2h-1.73v6.29c0,.19-.07.35-.2.49-.13.13-.29.2-.48.2s-.35-.07-.48-.2c-.14-.14-.2-.3-.2-.49v-6.29Z"/>
    <path class="cls-1" d="M195.48,154.18c.19,0,.35.07.48.2.14.14.2.3.2.49s-.07.35-.2.48c-.13.14-.29.2-.48.2h-4.21c-.19,0-.35-.07-.48-.2-.14-.13-.2-.29-.2-.48v-6.97c0-.19.07-.36.2-.49.13-.14.29-.2.48-.2h4.21c.19.01.35.08.49.21.13.14.2.3.2.49s-.07.35-.2.48c-.13.14-.29.2-.48.2h-3.52s0,2.1,0,2.1h2.53c.19,0,.35.07.49.2.14.14.2.3.2.49s-.07.35-.2.49c-.14.13-.3.2-.49.2h-2.53v2.11h3.52Z"/>
    <path class="cls-1" d="M203.12,149.63c0,.51-.16.97-.48,1.39-.31.41-.71.7-1.21.88l1.32,2.67c.08.17.09.34.03.52-.06.18-.17.31-.34.4-.1.05-.2.07-.3.07-.28,0-.49-.13-.61-.38l-1.54-3.12h-1.18v2.77c0,.19-.07.35-.2.48s-.29.2-.48.2-.35-.07-.48-.2c-.13-.14-.2-.3-.2-.48v-6.93c0-.19.07-.35.2-.48s.3-.2.48-.2h2.41c.72,0,1.33.24,1.83.71.51.47.76,1.04.76,1.71ZM200.57,150.69c.33-.01.6-.12.84-.32.23-.21.34-.45.34-.73s-.12-.54-.36-.75-.53-.31-.87-.31h-1.72v2.11h1.77Z"/>
    <path class="cls-1" d="M204.5,155.5c-.17-.07-.3-.2-.37-.37-.07-.17-.07-.35,0-.52l.74-1.77h0s2.14-5.17,2.14-5.17c0-.02.02-.04.03-.06v-.03s.03-.03.04-.03c0,0,0-.01.02-.03l.02-.02s0-.01.02-.02c.01-.02.02-.03.02-.03,0,0,.01,0,.02-.02.02-.02.03-.02.03-.02,0,0,0,0,.02-.02.02-.01.03-.02.03-.02l.02-.02s.03-.02.04-.02c0,0,.02,0,.04-.02.02-.01.03-.02.02-.01s0,0,.02-.01c.02,0,.03,0,.04-.01,0,0,.02,0,.04-.01h.02s.02,0,.04-.01h.03s.02,0,.04,0h.13s.03.01.03.01c0,0,.02,0,.04.01.02,0,.03,0,.02,0,.05.01.09.03.13.05,0,0,0,0,.02.01.02.01.03.02.03.02l.02.02s.03.02.03.02c0,0,.01,0,.02.02s.02.02.03.02c0,0,0,.01.02.02.02.02.02.02.02.03l.02.02s.02.03.02.03,0,.01.02.03.02.03.02.03c.01.02.02.04.03.06l2.14,5.16h0s.74,1.78.74,1.78c.07.17.07.35,0,.52-.07.17-.2.3-.37.37-.09.04-.17.05-.26.05-.31,0-.52-.14-.63-.42l-.56-1.35h-3.37l-.56,1.35c-.12.28-.33.42-.63.42-.09,0-.18-.02-.26-.05ZM208.76,152.42l-1.12-2.7-1.12,2.7h2.24Z"/>
    <path class="cls-1" d="M216.13,155.56c-1.14,0-2.12-.41-2.94-1.21-.81-.81-1.21-1.79-1.21-2.94s.41-2.12,1.21-2.94c.81-.81,1.79-1.22,2.94-1.22.94,0,1.79.29,2.53.86.15.12.23.27.26.45.02.19-.02.36-.14.51-.12.15-.27.24-.45.26-.19.02-.36-.02-.51-.13-.5-.38-1.06-.58-1.69-.58-.76,0-1.42.27-1.96.81-.54.54-.81,1.2-.81,1.96s.27,1.42.81,1.96,1.2.81,1.96.81c.72,0,1.34-.24,1.87-.72.14-.13.3-.19.49-.18.19,0,.35.08.48.23.13.14.19.3.18.49,0,.19-.08.35-.22.48-.79.72-1.73,1.08-2.8,1.08Z"/>
    <path class="cls-1" d="M222.22,148.58h-1.73c-.19,0-.35-.07-.49-.2-.13-.13-.2-.29-.2-.48s.07-.35.2-.48c.14-.14.3-.2.49-.2h4.83c.19,0,.35.07.48.2s.2.29.2.48-.07.35-.2.48-.3.2-.48.2h-1.73v6.29c0,.19-.07.35-.2.49-.13.13-.29.2-.48.2s-.35-.07-.48-.2c-.14-.14-.2-.3-.2-.49v-6.29Z"/>
    <path class="cls-1" d="M227.72,155.56c-.19,0-.35-.07-.48-.2-.14-.13-.2-.29-.2-.48v-6.93c0-.19.07-.35.2-.48.13-.14.29-.2.48-.2s.35.07.48.2c.14.13.2.29.2.48v6.93c0,.19-.07.35-.2.48-.13.14-.29.2-.48.2Z"/>
    <path class="cls-1" d="M233.91,155.56c-1.15,0-2.13-.41-2.95-1.23-.82-.81-1.23-1.8-1.23-2.95s.41-2.13,1.23-2.95,1.8-1.22,2.95-1.22,2.14.41,2.95,1.22c.81.82,1.22,1.8,1.22,2.95s-.41,2.13-1.22,2.95-1.8,1.23-2.95,1.23ZM233.91,148.58c-.77,0-1.43.27-1.98.82s-.83,1.21-.83,1.98.28,1.43.83,1.98c.55.55,1.21.83,1.98.83s1.43-.27,1.98-.83.82-1.21.82-1.98-.27-1.43-.82-1.98c-.55-.55-1.21-.82-1.98-.82Z"/>
    <path class="cls-1" d="M245.34,155.3h0s-4.18-5.38-4.18-5.38v4.96c0,.19-.07.35-.2.48-.13.14-.29.2-.48.2s-.35-.07-.48-.2c-.14-.13-.2-.29-.2-.48v-6.96c0-.15.04-.28.13-.4.09-.12.2-.2.34-.25.14-.05.27-.05.42-.01.14.04.25.12.34.24l4.18,5.38v-4.96c0-.19.07-.35.2-.48s.3-.2.49-.2.35.07.48.2c.14.13.2.29.2.48v6.98s0,.02,0,.03v.03s0,.02,0,.04c0,.02,0,.03,0,.03v.03s-.01.03-.02.04c0,0,0,.01-.01.03,0,.02,0,.03-.01.03v.03s-.03.03-.03.03c0,0,0,.02-.02.04l-.02.02s-.01.02-.02.04l-.02.02-.02.02s-.02.02-.02.02c0,0,0,.01-.02.02-.01.01-.02.02-.03.02.01,0,0,0,0,0h0s-.06.05-.09.06h0s-.06.03-.09.04c-.01,0-.02,0-.01,0-.03.01-.06.02-.1.02h-.02s-.07.01-.1.01c-.02,0-.05,0-.08,0,0,0,0,0-.01,0-.02,0-.04,0-.06-.01,0,0,0,0-.02,0-.02,0-.04,0-.05-.01,0,0-.01,0-.02-.01-.02,0-.03,0-.05-.02,0,0-.02,0-.02-.01-.02,0-.03-.01-.04-.02-.01,0-.02-.01-.02-.02-.01,0-.02-.02-.04-.03-.01,0-.02-.01-.02-.02-.02-.02-.04-.03-.05-.05h0s-.03-.04-.04-.06Z"/>
    <path class="cls-1" d="M253.77,153.08c-.03.69-.31,1.28-.83,1.76-.53.48-1.16.72-1.88.72-.63,0-1.2-.14-1.7-.41-.6-.33-.98-.8-1.14-1.42-.05-.18-.02-.35.07-.52.1-.16.24-.27.42-.31.18-.05.35-.02.52.07.16.1.27.24.31.42.07.26.26.46.57.61.28.13.6.19.95.19s.68-.11.94-.34c.26-.22.4-.5.42-.84,0-.2-.06-.38-.21-.54-.24-.25-.64-.39-1.21-.39h0s-.02,0-.01,0h-.01c-.95-.02-1.68-.29-2.18-.82-.41-.44-.61-.96-.58-1.54.03-.7.31-1.29.83-1.77s1.15-.72,1.88-.72c.63,0,1.2.14,1.7.41.6.33.98.8,1.14,1.42.05.18.02.35-.08.52-.09.16-.23.27-.41.31-.18.05-.35.02-.52-.07-.16-.1-.27-.24-.31-.42-.07-.26-.26-.46-.58-.61-.28-.13-.59-.19-.95-.19s-.68.11-.94.34c-.26.23-.4.51-.41.84,0,.2.06.38.21.55.24.25.64.38,1.21.39h.03c.95.02,1.68.29,2.18.83.41.44.61.95.58,1.54Z"/>
  </g>
  <g id="cpo95M">
    <g>
      <path class="cls-2" d="M224.03,75.96c-1.4-.3-3.74-4.33-2.39-5.5.89-.76,8.98-.62,10.73-1.11.28-1.63,2.05-5.57,3.97-5.71,4.82-.37,2.08,5.42,3.21,5.77l6.12-.62c6.25,6.86-2.19,5.84-6.97,6.55-.51,2.05-1.19,4.04-1.59,6.13-.79,4.21-1.51,9.77-.72,13.96.28,1.49.35,3.15,2.34,2.79,3.33-.62,2.44-9.71,4.87-11.92.27-.24.62-.44.99-.34,3.14,1.2,3.1,4.32,2.93,7.22-.25,4.22-3.04,11.56-7.49,12.87-5.71,1.69-8.41-2.04-10.28-6.8-3.07,4.07-3.8,7.79-9.94,6.14-2.31-.62-3.27-1.85-4.4-3.86-1.08-.18-1.54,1.36-2.27,2.01-3.16,2.83-6.27,3.65-9.89.97-1.32-.98-2.05-2.44-3.12-3.61-1.49,4.94-7.44,6.6-11.21,3.13-.55-.5-1.58-2.57-2.13-2.49-1.28.87-2.01,2.36-3.35,3.24-3.03,2.01-5.83,1.74-8.64-.47l-2.82-3.42c-2.05,4.18-4.82,6.06-9.52,4.24-2.09-.81-2.49-2.44-3.98-3.6l-.5.18c-3.56,6.05-11.25,5.77-13.82-.81-2.7,2.03-5.67,5.56-9.34,5.21-7.14-.68-5.81-11.01-5.47-16.04-1.12,1.05-2.05,3.21-2.69,4.7-1.08,2.51-3.07,10.7-5.77,11.31-4.62,1.04-5.15-1.2-5.03-5.01.21-6.51,1.53-14.37,2.34-20.96.45-3.68.98-7.38,1.6-11.03-.92,1.15-1.62,2.8-2.25,4.15-3.11,6.57-6.56,13.55-9.32,20.24-1.29,3.12-2.56,8.59-4.05,11.06-1.94,3.21-5.27,1.98-7.96.37-2.54-1.52-3.09-2.84-3.96-5.56-1.26-3.95-2.08-8.48-3.06-12.54-.86-.15-.51.12-.69.47-1.04,2.02-1.9,4.32-2.76,6.43-1.18,2.92-2.4,8.05-3.73,10.39-1.73,3.04-4.69,2.35-7.43,1.04-4.8-2.28-4.92-7.9-6.29-12.43-2.01-6.63-3.93-14.43-6.49-20.76-.5-1.24-3.11-5.69-3.15-6.37-.19-3.21,10.27-6.32,11.3-1.43l7.4,23.96c1.11-1.13,1.88-3,2.58-4.48,1.68-3.5,4.75-13.57,7.31-15.35,1.73-1.2,4.71-1.49,6.54-.34,3.08,1.93,3.3,10.54,4.06,14,.48,2.19,1.34,4.37,2.04,6.5,4.01-6.91,6.26-14.7,9.65-21.88,1.34-2.84,2.53-5.29,6.14-5.03,1.76.13,3.84.86,4.94,2.29,1.33-2.95,4.97-4.22,7.34-1.74-.2,8.19-2.18,16.27-3.22,24.38.69-.48.89-1.66,1.37-2.4,1.91-2.91,5.93-7.72,9.65-4.82.8.63,1.63,1.79,1.79,2.81.62,3.98-1.16,9.66-.65,13.78.31,2.51,2.71.55,3.64-.67,1.1-1.46,2.48-6.18,3.12-6.73.59-.5,1.34-.13,1.98-.65.52-.42,1.69-2.79,2.33-3.58,2.61-3.24,7.62-7.27,12.06-5.52.49.19.8.78,1.14.87.57.15,2.52-1.46,4.19-.27,3.01,2.13-2.81,13.93.03,17.04.98.21,3.49,1,4.95-2.57.71-1.74,5.43-9.3,6.06-9.72s1.11-1.51,1.64-1.99c2.11-1.96,5.71-4,8.69-3.75,1.21.1,2.19,1.14,2.73,1.23.43.07,1.02-.49,1.6-.58,6.19-.89,2.02,9.73,1.78,12.93-.7,9.26,3.5,5.91,5.31,2.96.73-1.18,6.08-10.52,6.54-10.81.23-.14,1.79-2.21,2.48-2.8,2.5-2.11,5.52-3.57,8.72-2.46.45.15,1.53.69,1.86.75.67.12,3.78-.56,4.93,1.37,1.72,2.87-2.34,10.29-1.46,14.21.71,3.18,3.25-1.16,3.95-2.15,3.8-5.38,3.31-6.73,4.63-12.77.31-1.41.92-2.78,1.22-4.2h-7.08ZM150.23,98.84c1.45,1.41,4.26-3.8,4.91-4.95.89-1.58,4.8-8.35.79-8.09-1.51.1-4.55,3.92-5.25,5.29-.95,1.86-2.11,6.14-.45,7.75ZM185.61,86.21c-1.96-1.95-5.87,3.22-6.68,4.83-1,1.97-1.53,4.41-1,6.6.2.83.8,1.83,1.74,1.39s3.62-4.86,4.21-6c.72-1.37,2.96-5.59,1.72-6.82ZM213.91,86.21c-2.38-2.29-6.93,4.58-7.51,6.63-.36,1.26-.84,6.11.88,6.4,1.43.24,6.14-8.26,6.56-9.81.2-.72.6-2.7.07-3.21Z"/>
      <path class="cls-2" d="M273.64,67.78c-1.69,1.01-2.52,6.42-6.18,6.07-5.6-.54-5.14-11.19-1.31-13.48,1.46-.87,6.72-1.48,8.46-1.28,11.06,1.31,22.95,10.57,16.78,22.54-3.59,6.98-12.13,4.08-15.65,8.19-1.62,1.9-1.33,4.06-4.73,3.53-9.1-1.41-5.63-8.74.24-11.94,4.69-2.56,11.32-.99,12.17-8.14.47-3.93-7.52-6.84-9.78-5.49Z"/>
      <path class="cls-2" d="M249.58,60.03c1.7-.75,7.67-3.57,8.46-.84.11,2,.03,4.27.25,6.23.69,6.02,2.09,12.43,3.13,18.47.36,2.1,1.9,4.05.11,6.11-3.19,3.69-8.25,2.05-9.49-2.42-1.03-3.74-1.53-10.53-1.91-14.6-.26-2.8-.55-6.06-.68-8.86-.03-.75-.16-3.73.12-4.09Z"/>
      <path class="cls-2" d="M258.68,97.69c5.7-.62,8.13,6.33,2.37,8.28-7.96,2.7-9.25-7.53-2.37-8.28Z"/>
    </g>
  </g>
</svg>